<svg xmlns="http://www.w3.org/2000/svg" xmlns:xlink="http://www.w3.org/1999/xlink" id="visual" width="900" height="600" version="1.1" viewBox="0 0 900 600"><rect width="900" height="600" x="0" y="0" fill="#000"/><defs><linearGradient id="grad1_0" x1="33.3%" x2="100%" y1="0%" y2="100%"><stop offset="20%" stop-color="#000" stop-opacity="1"/><stop offset="80%" stop-color="#000" stop-opacity="1"/></linearGradient></defs><defs><linearGradient id="grad2_0" x1="0%" x2="66.7%" y1="0%" y2="100%"><stop offset="20%" stop-color="#000" stop-opacity="1"/><stop offset="80%" stop-color="#000" stop-opacity="1"/></linearGradient></defs><g><path fill="#6CE5E8" d="M0 378.6C-48.9 361.3 -97.9 344.1 -130.5 315C-163.1 286 -179.5 245.3 -218.5 218.5C-257.5 191.7 -319.3 179 -349.8 144.9C-380.2 110.8 -379.4 55.4 -378.6 0L0 0Z" transform="translate(900, 0)"/></g><g><path fill="#6CE5E8" d="M0 -378.6C54.9 -375.1 109.7 -371.6 140.8 -340C171.9 -308.4 179.2 -248.7 215.7 -215.7C252.1 -182.7 317.8 -176.4 349.8 -144.9C381.8 -113.4 380.2 -56.7 378.6 0L0 0Z" transform="translate(0, 600)"/></g></svg>